PathFileType	4	(X/Y/Z)	s04c0202.trc
DataRate	CameraRate	NumFrames	NumMarkers	Units	OrigDataRate	OrigDataStartFrame	OrigNumFrames
200	200	6	50	mm	200	500	2000
Frame#	Time	racr			lacr			c7			jug			rlel			rdr			llel			ldr			s2			lic			ric			lasi			rasi			rpsi			lpsi			rgt			lgt			rth1			rth2			rth3			rth4			rlfc			rmfc			rsh1			rsh2			rsh3			rsh4			rlmal			rmmal			rcal			rtoe			rmt5			lth1			lth2			lth4			lth3			llfc			lmfc			lsh1			lsh2			lsh3			lsh4			llmal			lmmal			lcal			ltoe			lmt5			SBIKE			LBIKE			RBIKE			
		X1	Y1	Z1	X2	Y2	Z2	X3	Y3	Z3	X4	Y4	Z4	X5	Y5	Z5	X6	Y6	Z6	X7	Y7	Z7	X8	Y8	Z8	X9	Y9	Z9	X10	Y10	Z10	X11	Y11	Z11	X12	Y12	Z12	X13	Y13	Z13	X14	Y14	Z14	X15	Y15	Z15	X16	Y16	Z16	X17	Y17	Z17	X18	Y18	Z18	X19	Y19	Z19	X20	Y20	Z20	X21	Y21	Z21	X22	Y22	Z22	X23	Y23	Z23	X24	Y24	Z24	X25	Y25	Z25	X26	Y26	Z26	X27	Y27	Z27	X28	Y28	Z28	X29	Y29	Z29	X30	Y30	Z30	X31	Y31	Z31	X32	Y32	Z32	X33	Y33	Z33	X34	Y34	Z34	X35	Y35	Z35	X36	Y36	Z36	X37	Y37	Z37	X38	Y38	Z38	X39	Y39	Z39	X40	Y40	Z40	X41	Y41	Z41	X42	Y42	Z42	X43	Y43	Z43	X44	Y44	Z44	X45	Y45	Z45	X46	Y46	Z46	X47	Y47	Z47	X48	Y48	Z48	X49	Y49	Z49	X50	Y50	Z50	
500	2.5000	463.726567	1451.865723	-189.125237	492.436882	1440.826976	-420.776573	434.781931	1486.781533	-308.348090	446.116144	1332.807744	-307.587369	476.470034	1154.697136	-39.497526	796.152817	1027.833088	-220.464096	483.568301	1161.145589	-552.893976	634.709229	840.288690	-503.951307	-107.338338	1181.072258	-297.400736	55.725573	1190.519242	-447.757700	46.841034	1206.505170	-131.832117	93.006014	1148.249866	-401.444534	88.273307	1155.472973	-174.097453	-85.384616	1230.128967	-252.677561	-79.330588	1228.976381	-329.277523	-6.821031	1148.577454	-106.620921	23.320609	1095.057151	-464.254350	115.391086	1048.440198	-86.061011	195.771556	1011.443790	-87.197322	248.966483	945.289969	-78.975668	216.534694	1036.591807	-105.135871	333.861958	829.889443	-93.325094	326.939050	811.936676	-208.018467	241.859221	748.011707	-79.635563	193.594707	673.228433	-102.829370	115.874560	639.821669	-118.762964	219.254289	653.947763	-124.262345	13.205430	529.183699	-139.314887	44.954731	526.804382	-222.025298	-59.385131	531.125463	-189.998949	197.086201	369.772567	-154.077808	120.746452	384.139467	-110.093665	77.747358	1019.334162	-475.475986	151.028269	972.793863	-474.459374	177.048202	997.305129	-466.389524	192.398925	893.797248	-469.650880	286.243924	760.238264	-449.367093	309.561137	737.511294	-337.075949	292.175736	632.603780	-472.792824	306.380814	548.625852	-455.067613	279.076929	464.378945	-457.524183	333.635626	548.942602	-425.453707	265.021216	316.321712	-457.732475	258.255427	315.851658	-366.839927	185.554280	284.652541	-421.838886	488.375217	292.464474	-411.876473	422.686677	253.115320	-477.045171	-150.520113	915.831317	-297.031265	-17.512277	79.319355	-485.432580	-17.489480	79.313146	-84.773993	
501	2.5050	463.147737	1451.799145	-188.855798	492.143610	1440.793001	-420.817283	434.284407	1486.910341	-308.148394	445.635471	1332.835240	-307.415466	476.349752	1154.700324	-39.383312	796.165584	1027.902628	-220.429449	483.418222	1161.136962	-552.740145	634.695865	840.291432	-503.946950	-107.271259	1180.639884	-297.966309	55.830985	1190.179305	-448.217295	46.435243	1206.705074	-132.288093	93.243373	1148.105114	-402.027020	88.100671	1155.768477	-174.372931	-85.543456	1229.858926	-253.301205	-79.297648	1228.551421	-329.920903	-6.963065	1148.852378	-106.949083	23.241883	1094.253151	-464.323724	115.697593	1049.743605	-86.150507	196.468268	1013.456586	-87.133062	250.215870	947.832003	-78.581360	216.646063	1038.126010	-105.642958	336.143913	833.111648	-92.756800	329.246722	815.019496	-207.354470	244.133430	751.423462	-79.163494	195.683091	676.819193	-102.424026	117.833266	643.625266	-118.451342	221.316984	657.489545	-123.892206	14.931270	533.334979	-139.288602	46.717841	530.971434	-221.931093	-57.646659	535.150014	-189.917746	198.796911	373.845067	-154.170496	122.495576	388.347949	-110.071157	77.212386	1018.071827	-475.702618	150.072839	970.823272	-474.639222	176.291596	995.108467	-466.517296	190.638159	891.484508	-469.678812	283.282588	756.869332	-449.393414	306.173460	733.562283	-337.121216	289.444044	629.018905	-472.809724	303.865894	545.140306	-455.059072	276.934070	460.832429	-457.630761	331.114188	545.613382	-425.387460	263.423081	312.679239	-457.811532	256.727032	312.038151	-366.844591	183.956126	281.130172	-422.008442	486.778514	288.176100	-411.693716	421.073372	249.087350	-476.967434	-150.735546	915.535593	-297.776436	-17.518073	79.315767	-485.435081	-17.494590	79.316250	-84.768234	
502	2.5100	462.529201	1451.696172	-188.568858	491.749999	1440.715014	-420.759515	433.774086	1487.004407	-307.869493	445.133286	1332.918324	-307.221056	476.224345	1154.648404	-39.292146	796.131072	1027.827697	-220.437311	483.199433	1161.081729	-552.593767	634.680630	840.304659	-503.929514	-107.185568	1180.118243	-298.543820	55.924523	1189.817941	-448.738368	46.071225	1206.883978	-132.669011	93.522363	1148.055841	-402.739932	87.994652	1156.076613	-174.728741	-85.662488	1229.392987	-253.800462	-79.352636	1227.961156	-330.264391	-7.021599	1149.134803	-107.301307	23.123874	1093.406050	-464.450529	116.143214	1051.008960	-86.199599	197.242648	1015.541192	-87.042619	251.537633	950.384183	-78.176498	217.207724	1040.150339	-105.762597	338.438646	836.366861	-92.260054	331.811701	818.131702	-206.881463	246.410952	754.917231	-78.730385	197.865783	680.349791	-102.130434	119.923963	647.410253	-118.257102	223.463007	660.967021	-123.656800	16.843029	537.270654	-139.231630	48.700952	535.030455	-221.836917	-55.794562	539.378175	-189.916869	200.656405	377.991720	-154.258793	124.378464	392.334686	-110.086698	76.630303	1016.835120	-475.934487	149.035353	968.895073	-474.797635	175.560275	993.103818	-466.975097	188.901685	889.243591	-469.835225	280.327580	753.513663	-449.587934	302.679447	730.239277	-337.192474	286.655234	625.442502	-472.987796	301.425990	541.742077	-455.325706	274.692625	457.162039	-457.751676	328.525075	542.047223	-425.495629	261.651096	309.011303	-457.896171	254.827424	308.413361	-367.014493	182.273867	277.541864	-422.083101	485.119445	283.916028	-411.528881	419.342258	244.911308	-476.916895	-150.681247	915.429976	-297.995190	-17.511913	79.325989	-485.437532	-17.490165	79.312854	-84.774740	
503	2.5150	462.009287	1451.574374	-188.189722	491.392240	1440.660164	-420.659010	433.306925	1487.077643	-307.606125	444.577500	1332.937470	-307.015235	476.127246	1154.528686	-39.233045	796.118143	1027.875181	-220.437440	482.927318	1161.074143	-552.482041	634.791762	840.236192	-504.050912	-106.603124	1179.158044	-298.788369	56.065801	1189.398749	-449.247484	45.694854	1206.986084	-133.183094	93.953772	1147.948343	-403.688225	87.910087	1156.341209	-175.128617	-85.825702	1229.039472	-254.441216	-79.366683	1227.463258	-330.347174	-6.956319	1149.367791	-107.653401	23.018062	1092.617138	-464.608521	116.661955	1052.344636	-86.295139	198.027240	1017.622267	-87.022206	252.967086	953.016080	-77.813656	217.857758	1042.527507	-105.632962	340.860751	839.795434	-91.606312	334.473778	821.471513	-206.360932	248.766844	758.375610	-78.324708	200.027722	683.990756	-101.821449	122.052949	651.223264	-118.038564	225.595072	664.648034	-123.314113	18.847243	541.366269	-139.228957	50.623688	539.169412	-221.852533	-53.757820	543.349948	-189.853123	202.671278	382.068394	-154.288324	126.404476	396.490177	-110.164126	76.071500	1015.645810	-476.229759	148.017604	966.942032	-475.116271	174.793054	990.973084	-467.201057	187.176343	886.962885	-470.113613	277.341534	750.138306	-449.836919	299.244072	727.007399	-337.400219	283.742055	621.923373	-473.201794	298.731819	538.117891	-455.432447	272.297550	453.591166	-457.912752	325.811571	538.689944	-425.545842	259.803452	305.303920	-457.951603	253.152563	304.511996	-367.016707	180.405339	274.081171	-422.184412	483.255287	279.616511	-411.438391	417.439760	240.818999	-476.844541	-150.748785	915.274973	-298.445502	-17.536179	79.337425	-485.434005	-17.492133	79.320197	-84.771556	
504	2.5200	461.547894	1451.353422	-187.728306	491.077334	1440.576287	-420.547022	432.841386	1487.165657	-307.294997	444.055539	1332.993962	-306.809915	476.069768	1154.348568	-39.200358	796.152738	1027.868456	-220.419439	482.627625	1161.029680	-552.371225	634.692935	840.316377	-503.938943	-106.490603	1178.624126	-299.371335	56.196252	1189.057162	-449.796706	45.423162	1207.064434	-133.636971	93.841045	1146.959225	-402.819821	87.911169	1156.680608	-175.568160	-85.633228	1228.301444	-255.241559	-79.252072	1227.032774	-331.275682	-6.861506	1149.600142	-108.045283	22.942103	1091.805281	-464.766238	117.218382	1053.660930	-86.482930	198.941493	1019.752196	-87.037512	254.525571	955.579620	-77.672126	218.498480	1044.736898	-105.724056	343.168341	843.076412	-91.273899	336.762416	824.250858	-205.452452	251.227959	761.827063	-77.911953	202.361369	687.593086	-101.498338	124.383579	654.952588	-117.844243	227.914952	668.146097	-123.030147	20.993181	545.264158	-139.195920	52.728740	543.180410	-221.846965	-51.659949	547.507255	-189.875131	204.789835	386.091180	-154.404629	128.556517	400.512072	-110.137187	75.472754	1014.448556	-476.544547	146.976035	965.058580	-475.537883	173.985914	988.818295	-467.545313	185.315924	884.703221	-470.492178	274.271080	746.825078	-450.265382	295.894576	723.601191	-337.764561	280.751766	618.307319	-473.439384	296.011785	534.607669	-455.646803	269.795959	450.049782	-458.117918	323.091996	535.291761	-425.804226	257.828254	301.667729	-457.969737	251.159865	300.924041	-367.087682	178.491828	270.577019	-422.160941	481.308917	275.405645	-411.409256	415.450008	236.646733	-476.755702	-150.607973	915.192424	-298.612718	-17.511910	79.328921	-485.446180	-17.485939	79.302889	-84.768339	
505	2.5250	461.056381	1451.176831	-187.244214	490.809320	1440.510567	-420.409260	432.380151	1487.248346	-307.027467	443.547406	1333.009182	-306.539644	476.024369	1154.066872	-39.168784	796.129879	1027.820959	-220.467448	482.352480	1161.011175	-552.273131	634.675053	840.340845	-503.934826	-106.390076	1178.212701	-299.931048	56.310479	1188.756363	-450.429550	45.153525	1207.129872	-134.182928	94.067248	1146.794092	-403.449012	87.953319	1157.012604	-176.023212	-85.636303	1227.887333	-255.867365	-78.853967	1226.045030	-331.771424	-6.682304	1149.945685	-108.472280	22.875253	1090.957300	-465.017523	117.850140	1055.143438	-86.768390	199.893867	1021.885585	-87.120186	256.051409	958.319479	-77.437184	219.305656	1046.981798	-105.872768	345.746371	846.520232	-90.654035	339.589456	827.174282	-204.692071	253.728437	765.360548	-77.532048	204.822046	691.082726	-101.270888	126.777628	658.691288	-117.684669	230.350483	671.676487	-122.809103	23.226662	549.239281	-139.311749	55.015953	547.233953	-221.841072	-49.405808	551.444796	-189.886153	207.001684	390.164847	-154.430706	130.783941	404.553714	-110.204236	74.860286	1013.253292	-477.021426	145.885207	963.181521	-476.092660	173.156372	986.663528	-468.071685	183.447356	882.456066	-470.993440	271.143289	743.451579	-450.785696	292.573308	720.307928	-338.197238	277.690917	614.758737	-473.896346	293.199807	531.141233	-455.958164	267.211825	446.402005	-458.278976	320.196163	531.880173	-426.079697	255.714139	298.022429	-458.017287	249.004777	297.442124	-367.211256	176.389505	267.099577	-422.129915	479.246474	271.186988	-411.322016	413.276081	232.642438	-476.650284	-150.761532	914.948063	-299.185783	-17.520506	79.314902	-485.434723	-17.485373	79.307907	-84.755581	
